<svg xmlns="http://www.w3.org/2000/svg" xmlns:xlink="http://www.w3.org/1999/xlink" width="310" height="310">
  <defs>
    <linearGradient id="gradient0">
      <stop stop-color="#a18732" offset="0" />
      <stop stop-color="#eee68b" offset=".5" />
      <stop stop-color="#a18732" offset="1" />
    </linearGradient>
    <linearGradient xlink:href="#gradient0" id="gradient1" gradientTransform="scale(1.28426 .77866)" x1="15.417"
      y1="40.839" x2="62.293" y2="40.839" gradientUnits="userSpaceOnUse" />
    <linearGradient xlink:href="#gradient0" id="gradient2" gradientUnits="userSpaceOnUse"
      gradientTransform="scale(2.73872 .36513)" x1="1.398" y1="3.424" x2="103.887" y2="3.424" />
  </defs>
  <circle cx="156.7" cy="155.5" r="154." fill="#1a1a1a" />
  <path
    d="M83.163 26.107c-2.458.567-2.603 8.422-.488 17.583 2.114 9.16 5.689 16.156 8.146 15.589 2.458-.568 4.004-7.36 1.89-16.52-2.115-9.16-7.09-17.22-9.548-16.652zM8.431 71.674C4.05 66.428 2.62 59.166 2.62 50.076c0-13.988 5.844-25.628 15.361-34.294C26.251 8.25 37.331 4 49.326 4c14.072 0 24.858 4.33 33.422 14.307 7.134 8.312 13.285 19.887 13.285 31.77 0 8.649-1.4 15.198-5.397 20.351-3.28 4.23-7.858 7.419-13.293 9.716-.067 4.993-.69 10.405-6.23 13.534C66.269 96.416 55.496 97 48.664 97c-8.885 0-17.766.137-22.867-4.152-3.276-2.755-4.645-8.418-4.93-12.513-5.016-2.058-9.285-4.89-12.435-8.661zm40.687-16.192c12.382 0 22.42-10.038 22.42-22.42 0-12.382-10.038-22.42-22.42-22.42-12.382 0-22.42 10.038-22.42 22.42 0 12.382 10.038 22.42 22.42 22.42zm-41.403 2.67c2.437.653 6.253-6.215 8.686-15.296 2.433-9.08 2.562-16.936.126-17.589-2.437-.653-6.99 4.618-9.424 13.7-2.433 9.08-1.824 18.532.612 19.185zm19.399 31.665c4.469 2.933 13.044 3.446 21.174 3.446 9.017 0 19.014-.032 23.665-3.939 2.741-2.302 2.906-8.778 2.906-11.753 0-1.238-.327-3.081-1.245-4.237-1.964-2.47-5.76-4.016-8.719-5.397-4.619-2.156-8.181-2.49-15.569-2.49-6.813 0-11.988.655-16.815 2.49-3.87 1.472-8.576 3.76-9.964 6.228-.522.927 0 2.256 0 3.406 0 3.47 1.16 10.009 4.567 12.246zm12.04-4.027c-1.376 0-2.49-1.389-2.49-8.304s1.114-8.303 2.49-8.303c1.376 0 2.491 1.388 2.491 8.303 0 6.915-1.115 8.304-2.49 8.304zm19.929 0c-1.376 0-2.491-1.389-2.491-8.304s1.115-8.303 2.49-8.303c1.376 0 2.492 1.388 2.492 8.303 0 6.915-1.116 8.304-2.491 8.304zm0 0"
    fill="url(#gradient2)" transform="matrix(.84842 0 0 .80002 114.213 33.025)" fill-rule="evenodd" />
  <path
    d="M104.6 41.3a52.2 52.2 0 00-3.5-11.2A51.1 51.1 0 0044.3 1a49.6 49.6 0 00-5.7 1.5 49.1 49.1 0 00-7.9 2.7A51.6 51.6 0 006.3 77a53.7 53.7 0 004.1 6.4 57 57 0 005 5.7 51.7 51.7 0 0055.3 11.5l3.3-1.4 3-1.5a50.9 50.9 0 005.8-3.8l2.7-2.1 1.2-1.1 1.1-.9 2-1.8.7-.6.6-.7 1.8-2a48.5 48.5 0 005.9-8.3 50.4 50.4 0 005.6-14.7 51.6 51.6 0 00.2-20.4zM87.1 88.6l-1.2 1.1-1.2 1.1-2.6 2.1a49.5 49.5 0 01-5.7 3.6l-3 1.5-3.2 1.3-4.9 1.6h-.5a50.9 50.9 0 01-20.3.1 51.8 51.8 0 01-11.1-3.6A50.5 50.5 0 0122.9 91a52 52 0 01-9.1-9.4 50.3 50.3 0 01-3.7-5.7c-.6-1-1.1-2-1.6-3.1s-1-2.1-1.3-3.2a50.6 50.6 0 018.6-50.8l.8-.8.5-.6.6-.6 1.2-1.1 2.4-2.1A50.5 50.5 0 0162.4 3.2a48.5 48.5 0 0114.7 5.2 47 47 0 018.3 5.8l2 1.8.7.6.6.7 1.8 2a49.7 49.7 0 0111.3 22.9 50.8 50.8 0 01-.1 20.2 51.6 51.6 0 01-3.6 11 50.2 50.2 0 01-6.6 10.5l-2.1 2.4zm-44.9 13a50.1 50.1 0 01-13.7-5 51.8 51.8 0 01-6.2-4 55.2 55.2 0 01-5.5-4.8 49.9 49.9 0 01-11-53.2c.4-1.1.9-2.1 1.3-3.1l.6-1.3a50.2 50.2 0 00-3.4 11 51.3 51.3 0 002.4 28.5c.4 1.1.9 2.2 1.4 3.2.5 1 1 2.1 1.6 3.1a50.6 50.6 0 003.7 5.8 51.5 51.5 0 009.2 9.5 50.9 50.9 0 0010.7 6.5 51 51 0 0028.7 3.9 50.3 50.3 0 01-19.8-.1zm61.9-39.9a50.2 50.2 0 01-5.5 14.7 48.4 48.4 0 01-5.8 8.3l-1.8 2-.6.7-.7.6-1.9 1.7h.2l2.3-2.4 2.1-2.5A51.3 51.3 0 0098.9 74a51.4 51.4 0 003.2-31.6 49.6 49.6 0 00-2.5-8.2 49.4 49.4 0 00-3.1-6.5 48.7 48.7 0 00-5.9-8.3l-1.8-2-.6-.7-.7-.6-2-1.8A49.9 49.9 0 0077.3 8a49.3 49.3 0 00-6.5-3.2 49.8 49.8 0 00-8.2-2.6A52.2 52.2 0 0049.9 1a50.8 50.8 0 0122.7 3.2l3.2 1.3 3.1 1.6a50.1 50.1 0 015.7 3.7l2.6 2.1 1.2 1.1 1.2 1.1 2.3 2.3 2.1 2.4a50.4 50.4 0 016.5 10.5 51.6 51.6 0 013.6 11 51.1 51.1 0 010 20.3z"
    fill="url(#gradient0)" transform="matrix(2.93885 0 0 2.97566 .475 .322)" />
  <g transform="matrix(3.2578 0 0 3.2578 -6.708 25.992)">
    <path
      d="M29.9 66l2.9-11.5h-5.6c-.8 0-1.5-.7-1.5-1.5v-4.7c0-.8.7-1.5 1.5-1.5h5.6c.8 0 1.5.7 1.5 1.5v.3L37 37.8h-4.2c-.8 0-1.5.7-1.5 1.5v3.6h-2.6v-3.6c0-.8-.7-1.5-1.5-1.5h-5.9c-.8 0-1.5.7-1.5 1.5v27.5c0 .8.7 1.5 1.5 1.5H30c-.1-.8-.3-1.6-.1-2.3z"
      fill="url(#gradient1)" />
    <path
      d="M78.5 37.8h-5.9c-.8 0-1.5.7-1.5 1.5v3.6h-2.6v-3.6c0-.8-.7-1.5-1.5-1.5h-4.2l2.7 10.8v-.3c0-.8.7-1.5 1.5-1.5h5.6c.8 0 1.5.7 1.5 1.5V53c0 .8-.7 1.5-1.5 1.5H67L70.1 66c.2.8.1 1.5-.3 2.2h8.7c.8 0 1.5-.7 1.5-1.5V39.3c0-.8-.7-1.5-1.5-1.5z"
      fill="url(#gradient1)" />
    <path
      d="M60 32.9c-.2-.6-.8-1.1-1.4-1.1H53c-.8 0-1.5.7-1.5 1.5V37h-3.1v-3.7c0-.8-.7-1.5-1.5-1.5h-5.5c-.7 0-1.3.5-1.4 1.1l-8.5 33.5c-.1.4 0 .9.3 1.3s.7.6 1.2.6h11.6v-7c0-3 2.5-5.5 5.5-5.5 3.1 0 5.5 2.5 5.5 5.5v7h11.6c.5 0 .9-.2 1.2-.6.3-.4.4-.8.3-1.3zm-5.2 17.8c0 .8-.7 1.5-1.5 1.5h-6.6c-.8 0-1.5-.7-1.5-1.5v-6.5c0-.8.7-1.5 1.5-1.5h6.6c.8 0 1.5.7 1.5 1.5z"
      fill="url(#gradient1)" />
  </g>
</svg>