<?xml version="1.0" encoding="iso-8859-1"?>
<!-- Generator: Adobe Illustrator 19.0.0, SVG Export Plug-In . SVG Version: 6.00 Build 0)  -->
<svg version="1.1" id="Layer_1" xmlns="http://www.w3.org/2000/svg" xmlns:xlink="http://www.w3.org/1999/xlink" x="0px" y="0px"
	 viewBox="0 0 511.99 511.99" style="enable-background:new 0 0 511.99 511.99;" xml:space="preserve">
<path style="fill:#ED5565;" d="M347.665,126.232c-3.344-3.656-38.343-48.655-38.343-48.655l-48.655-19.344l-33,4.672l-52.671,42.671
	l-14.328,35.655l-5.343,54.343l11.343,21.656l10.656,12.344c0,0,46.343-8.328,47.343-8s81.655,4,81.655,4l32.343,4l22.656-43.343
	C361.321,186.23,351.009,129.888,347.665,126.232z"/>
<polygon style="fill:#F5F7FA;" points="225.245,106.56 217.495,72.311 205.246,75.811 182.246,99.81 163.246,134.809 
	163.246,152.809 184.496,151.309 204.246,146.809 226.995,135.309 "/>
<rect x="202.655" y="221.555" style="fill:#E6E9ED;" width="104.34" height="59"/>
<polygon style="fill:#F5F7FA;" points="347.993,159.559 317.493,178.559 306.994,201.058 306.994,215.558 319.993,229.574 
	344.493,234.058 353.993,205.558 361.321,171.559 "/>
<rect x="177.495" y="283.055" style="fill:#FFCE54;" width="160.5" height="170.5"/>
<g>
	<rect x="17.015" y="285.555" style="fill:#FC6E51;" width="153.65" height="170"/>
	<rect x="347.005" y="280.555" style="fill:#FC6E51;" width="153.65" height="170"/>
</g>
<g>
	<path style="fill:#080808;" d="M501.319,271.995H341.321h-21.328v-33.094c5.188,1.141,10.453,1.938,15.734,1.938
		c4.438,0,11.047-1.562,17.281-9c12.719-15.188,18.359-48.749,13.141-78.077c-7.453-41.921-31.344-67.499-50.093-81.592
		c-22.141-16.641-46.108-24.14-60.093-24.171c-13.938,0.031-37.906,7.531-60.046,24.171c-18.75,14.093-42.64,39.671-50.093,81.592
		c-0.016,0.016-0.016,0.031-0.016,0.047c-5.203,29.328,0.453,62.874,13.156,78.03c6.234,7.437,12.844,9,17.281,9
		c5.469,0,10.687-0.844,15.75-2.062v33.218h-21.343H10.656C4.765,271.995,0,276.761,0,282.651v170.668
		c0,5.891,4.765,10.672,10.656,10.672h159.997h170.668h159.998c5.89,0,10.671-4.781,10.671-10.672V282.651
		C511.99,276.761,507.209,271.995,501.319,271.995z M490.647,325.321h-21.328v-31.999h21.328V325.321z M394.649,325.321v-31.999
		h53.342v31.999H394.649z M373.321,325.321h-21.328v-31.999h21.328V325.321z M351.993,346.649h58.655v42.672h-58.655V346.649z
		 M447.991,410.648v31.999h-53.342v-31.999H447.991z M431.991,389.321v-42.672h58.656v42.672H431.991z M344.181,200.012
		c-3.125,13.546-7.547,18.578-8.922,19.484c-6.734-0.094-14.5-2.281-22.702-4.594c-0.062,0-0.141-0.031-0.203-0.047
		c3.484-23.75,21.905-35.421,34.39-40.671C346.899,183.028,346.056,191.933,344.181,200.012z M208.73,89.217
		c1.203-0.906,2.406-1.766,3.609-2.594c5.531,11.547,12.109,31.25,4.719,43.5c-6.265,10.375-22.562,15.625-47.437,15.406
		C177.778,117.451,194.933,99.607,208.73,89.217z M167.793,200.012c-2.391-10.344-3.125-22.046-2.172-33.234
		c1.781,0.031,3.531,0.062,5.234,0.062c32.5,0,54.155-8.609,64.468-25.687c13.484-22.343,2.328-51.437-4.406-65.03
		c10.781-4.812,19.968-6.781,25.046-6.797c8.391,0.016,27.922,5.344,47.28,19.89c14.905,11.219,33.687,31.125,40.874,63.187
		c-5.859,2.078-13.578,5.438-21.281,10.578c-17.421,11.641-28.093,27.765-31.343,47.078c-0.328-0.031-0.656-0.094-0.983-0.125
		c-7.547-0.906-20.875-1.438-35.672-1.438c-14.781,0-28.109,0.531-35.671,1.438c-7.688,0.906-14.75,3.046-21.593,5.125
		c-7.375,2.234-14.343,4.344-20.859,4.438C175.34,218.589,170.918,213.558,167.793,200.012z M213.324,232.73
		c2.812-0.703,5.594-1.297,8.344-1.609c6.672-0.781,19.39-1.281,33.171-1.281c13.797,0,26.516,0.5,33.172,1.281
		c3.39,0.406,6.952,1.172,10.64,2.109v38.765h-85.327L213.324,232.73L213.324,232.73z M63.998,325.321v-31.999h53.327v31.999H63.998
		z M79.998,346.649v42.672h-58.67v-42.672H79.998z M117.326,410.648v31.999H63.998v-31.999H117.326z M138.653,410.648h21.343v31.999
		h-21.343V410.648z M159.996,389.321h-58.67v-42.672h58.67V389.321z M159.996,325.321h-21.343v-31.999h21.343V325.321z
		 M42.655,293.322v31.999H21.328v-31.999H42.655z M21.328,410.648h21.327v31.999H21.328V410.648z M181.325,293.322h21.328h106.67
		h21.327v149.325H181.325V293.322z M351.993,410.648h21.328v31.999h-21.328V410.648z M469.319,442.647v-31.999h21.328v31.999
		H469.319z"/>
	<path style="fill:#080808;" d="M195.105,307.119c-4.156,4.156-4.156,10.905,0,15.077c4.172,4.172,10.922,4.172,15.094,0
		c4.156-4.172,4.156-10.921,0-15.077C206.027,302.947,199.277,302.947,195.105,307.119z"/>
	<path style="fill:#080808;" d="M301.775,307.119c-4.172,4.156-4.156,10.905,0,15.077c4.172,4.172,10.922,4.172,15.094,0
		c4.155-4.172,4.155-10.921,0-15.077C312.697,302.947,305.947,302.947,301.775,307.119z"/>
	<path style="fill:#080808;" d="M195.105,413.773c-4.156,4.156-4.156,10.921,0,15.093c4.172,4.156,10.922,4.156,15.094,0
		c4.156-4.172,4.156-10.937,0-15.093C206.027,409.617,199.277,409.617,195.105,413.773z"/>
	<path style="fill:#080808;" d="M301.775,413.773c-4.172,4.156-4.156,10.921,0,15.093c4.172,4.156,10.922,4.156,15.094,0
		c4.155-4.172,4.155-10.937,0-15.093C312.697,409.617,305.947,409.617,301.775,413.773z"/>
</g>
<g>
</g>
<g>
</g>
<g>
</g>
<g>
</g>
<g>
</g>
<g>
</g>
<g>
</g>
<g>
</g>
<g>
</g>
<g>
</g>
<g>
</g>
<g>
</g>
<g>
</g>
<g>
</g>
<g>
</g>
</svg>
